<?xml version="1.0" encoding="UTF-8"?><svg id="Layer_1" xmlns="http://www.w3.org/2000/svg" viewBox="0 0 1442.96 312.36"><defs><style>.cls-1{fill:#fff;}</style></defs><path class="cls-1" d="m848.61,300.99l-10.22-.46c-70.37-3.15-138.27-60-201.79-117.95-65.57-59.92-133.37-121.86-204.57-127.32-3.32-.25-6.7-.37-10.04-.37-62.82,0-122.22,45.54-177.68,92.19l-4.4,3.81s-8.78-7.86-12.95-11.82c-6.58-6.24-11.22-10.76-11.22-10.76l7.84-7.13C286.16,64.1,359.05,3.31,432.35,4.81c75.14,1.58,141.96,58.46,206.58,113.47l.34.29c63.34,53.92,128.89,109.77,199.4,108.47l9.95-.17v74.11Z"/><path class="cls-1" d="m673.31,147.22l-4.69-3.87c9.38-8.2,19.37-17.34,28.67-25.87,45.14-41.41,91.79-84.21,141.96-87.2l6.6-.39V8.19l-7.07.06c-54.35.45-104.49,45.01-152.98,88.1-11.36,10.1-23.11,20.53-34.53,30.02l-1.43,1.19-4.64-3.94,2.24-1.87c11.34-9.42,23.05-19.82,34.37-29.88C731.13,48.04,782.13,2.72,838.73,2.25l13.12-.11v33.38l-12.24.73c-48.04,2.87-93.9,44.94-138.25,85.62-9.34,8.57-18.61,17.09-28.05,25.34Z"/><path class="cls-1" d="m886.83,5.15h56.01v296.04h-56.01V5.15Z"/><path class="cls-1" d="m975.76,5.15h64.02c32.37,0,60.15,2.83,83.32,8.5,23.17,5.67,42.54,14.76,58.1,27.24,17.87,14.19,31.27,30.47,40.22,48.89,8.92,18.41,13.41,38.63,13.41,60.64,0,20.84-4.03,40.41-12.09,58.75-8.04,18.34-19.75,34.34-35.16,48.01-15.37,13.67-34.4,24.43-57.04,32.26-22.64,7.83-48.55,11.74-77.76,11.74h-77.01V5.15Zm52.8,274.29h15.47c17.87,0,34.63-2.76,50.28-8.26,15.67-5.5,29.29-13.67,40.87-24.5,11.6-10.83,20.74-24.21,27.48-40.13,6.7-15.91,10.06-34.28,10.06-55.12,0-18.17-3.18-34.89-9.55-50.14-6.37-15.26-15.21-28.39-26.54-39.39-11.32-11-24.85-19.54-40.59-25.61-15.74-6.09-32.9-9.13-51.48-9.13h-16v252.29Z"/><path class="cls-1" d="m1401.8,5.15v33.24h-74.77v262.79h-56.03V38.4h-74.77V5.15h205.56Z"/><path class="cls-1" d="m416.88,312.36c-74.88,0-139.17-55.91-207.23-115.09-62.49-54.34-127.1-110.53-197.32-114.11l-12.33-.63V0l14.47,1.66c75.49,8.67,142.23,71.27,201.11,126.5l2.36,2.21-.07.07,5.46,5.3c3.29,3.01,6.63,6.09,9.99,9.16l4.36,3.99h.01s1.98,1.79,1.98,1.79c56.42,52.2,117.13,103.2,184.4,103.63h.6c65,0,124.23-46.02,179.32-93.15l4.63-3.96,4.5,4.04-5.23,4.48c-55.94,47.86-116.17,94.59-183.22,94.59h-.62c-68.97-.44-130.34-51.53-187.3-104.15l-1.17-1.05-6.33-5.78c-3.36-3.07-6.71-6.15-10.06-9.22l-9.44-9.17C151.98,76.74,86.59,15.99,13.79,7.62l-7.79-.89v70.09l6.63.34c72.29,3.68,137.7,60.56,200.95,115.57,67.2,58.44,130.66,113.63,203.3,113.63,2.38,0,4.74-.06,7.19-.18,76.61-4.11,146.19-69.35,202.09-121.77l6.13-5.76,4.44,4.05-6.47,6.08c-56.62,53.09-127.08,119.15-205.89,123.38-2.57.13-5.02.19-7.5.19Z"/><path class="cls-1" d="m173.15,165.94c-10.64,9.09-21.3,18.69-31.65,28.03-42.17,38.03-85.78,77.34-129.76,82.77l-8.91,1.1v27.89l10.93-.83c53.47-4.06,101.96-46.35,148.86-87.26,12.27-10.7,23.9-20.85,35.59-30.32,0,0-9.31-8.07-13.37-11.51s-11.68-9.88-11.68-9.88Z"/><path class="cls-1" d="m1411.22,8.06h-5.46v-2.9h14.34v2.9h-5.46v15.22h-3.43v-15.22Zm11.36-2.9h5.24l4.88,13.9h.13l4.88-13.9h5.24v18.13h-3.43v-15.14h-.09l-5.28,15.14h-2.77l-5.28-15.14h-.09v15.14h-3.43V5.15Z"/></svg>